<?xml version="1.0" encoding="utf-8"?>
<!-- Generator: Adobe Illustrator 19.2.1, SVG Export Plug-In . SVG Version: 6.00 Build 0)  -->
<svg version="1.1" id="Слой_1" xmlns="http://www.w3.org/2000/svg" xmlns:xlink="http://www.w3.org/1999/xlink" x="0px" y="0px"
	 viewBox="0 0 300 57" style="enable-background:new 0 0 300 57;" xml:space="preserve">
<style type="text/css">
	.st0{fill:#3A8244;}
	.st1{fill:#5599DB;}
</style>
<g>
	<polygon class="st0" points="27.8,44.7 27.3,47.5 21.9,47.5 19.9,56.7 16,56.7 18.6,44.7 	"/>
	<path class="st0" d="M36.8,52.6l-0.4-4.3l-2.1,4.3H36.8z M39.2,44.7l1.7,11.9H37l-0.1-1.6H33l-0.8,1.6h-3.8l6.8-11.9H39.2z"/>
	<path class="st0" d="M51.2,50.2h1.6c0.9,0,1.9-0.5,1.9-1.6c0-0.9-1-1-1.9-1h-1.1L51.2,50.2z M49.8,56.7h-3.9l2.6-11.9h5.8
		c3,0,4.3,1.2,4.3,3.1c0,3.1-2.3,5.2-6,5.2h-2L49.8,56.7z"/>
	<path class="st0" d="M68.5,52.6l-0.4-4.3L66,52.6H68.5z M70.9,44.7l1.7,11.9h-3.9l-0.1-1.6h-3.9L64,56.7h-3.8L67,44.7H70.9z"/>
	<polygon class="st0" points="83.2,48.9 86.9,48.9 87.8,44.7 91.7,44.7 89.1,56.7 85.2,56.7 86.3,51.7 82.6,51.7 81.5,56.7 
		77.6,56.7 80.2,44.7 84.1,44.7 	"/>
	<polygon class="st0" points="101.8,56.7 97.9,56.7 99.9,47.5 96.4,47.5 97,44.7 107.9,44.7 107.3,47.5 103.8,47.5 	"/>
	<polygon class="st0" points="124.7,44.7 122.2,56.7 118.4,56.7 119.2,52.9 120.1,49.8 114.3,56.7 110.6,56.7 113.2,44.7 
		116.9,44.7 116.1,48.5 115.3,51.6 121,44.7 	"/>
	<path class="st0" d="M136.6,47.5H135c-0.9,0-1.9,0.5-1.9,1.5c0,0.5,0.4,0.8,1.6,0.8h1.3L136.6,47.5z M134.4,52.5l-2.7,4.2h-4.2
		L131,52c-0.9-0.4-1.6-1.6-1.6-2.8c0-1.5,1.1-4.4,6-4.4h5.7l-2.6,11.9h-3.9l0.9-4.2H134.4z"/>
	<polygon class="st0" points="159.3,48.6 163.5,44.7 168.1,44.7 162.8,49.2 166,56.7 161.3,56.7 159.5,51.9 158.4,52.9 157.5,56.7 
		153.6,56.7 156.2,44.7 160.1,44.7 	"/>
	<path class="st0" d="M178.5,52.6l-0.4-4.3l-2.1,4.3H178.5z M180.9,44.7l1.7,11.9h-3.9l-0.1-1.6h-3.9l-0.8,1.6h-3.8l6.8-11.9H180.9z
		"/>
	<path class="st0" d="M192.9,44.7l-0.7,3.1c0,0.1-0.1,0.3-0.1,0.4c0,0.7,0.4,1,1.2,1c0.8,0,1.5-0.1,1.8-0.2l0.9-4.2h3.9l-2.6,11.9
		h-3.9l1-4.8c-0.7,0.2-1.2,0.3-3.3,0.3c-1.5,0-3.2-0.8-3.2-2.8c0-0.3,0-0.6,0.1-0.9l0.8-3.7H192.9z"/>
	<polygon class="st0" points="215.7,44.7 215.1,47.5 209.3,47.5 208.9,49.2 213.9,49.2 213.3,52 208.3,52 207.9,53.9 214,53.9 
		213.4,56.7 203.4,56.7 206,44.7 	"/>
	<path class="st0" d="M228.2,49.3c0-0.1,0-0.2,0-0.3c0-1-0.6-1.6-1.7-1.6c-2.5,0-3.1,3.9-3.1,4.9c0,1.1,0.4,1.8,1.8,1.8
		c1.3,0,2-0.9,2.4-2h3.8c-1,3.1-3.6,4.9-6.8,4.9c-3.3,0-5.2-1.7-5.2-4.6c0-4.7,3.7-8,7.5-8c3.3,0,5,1.5,5,4.1c0,0.2,0,0.5-0.1,0.7
		H228.2z"/>
	<polygon class="st0" points="242.5,56.7 238.5,56.7 240.5,47.5 237,47.5 237.6,44.7 248.5,44.7 247.9,47.5 244.4,47.5 	"/>
	<path class="st0" d="M256.7,49.5h1.6c0.8,0,1.6-0.4,1.6-1.3c0-0.6-0.6-0.7-1.4-0.7h-1.4L256.7,49.5z M255.8,53.9h1.7
		c1,0,2-0.2,2-1.4c0-0.7-0.7-0.8-2-0.8h-1.2L255.8,53.9z M253.8,44.7h5.7c2.4,0,4.3,0.5,4.3,2.3c0,1.5-1.1,2.7-2.2,3.3
		c1,0.3,1.5,1.1,1.5,2.1c0,3.2-2.8,4.3-6,4.3h-5.8L253.8,44.7z"/>
	<path class="st0" d="M275.1,52.6l-0.4-4.3l-2.1,4.3H275.1z M277.6,44.7l1.7,11.9h-3.9l-0.1-1.6h-3.9l-0.8,1.6h-3.8l6.8-11.9H277.6z
		"/>
	<path class="st0" d="M295,7.7c-1.9,0-3.5-1.5-3.5-3.5c0-1.9,1.5-3.5,3.5-3.5c1.9,0,3.5,1.5,3.5,3.5C298.5,6.2,297,7.7,295,7.7
		 M295,0c-2.3,0-4.2,1.9-4.2,4.3c0,2.4,1.9,4.2,4.2,4.2c2.4,0,4.3-1.9,4.3-4.2C299.3,1.9,297.4,0,295,0"/>
	<path class="st0" d="M296.3,3.4L296.3,3.4l-0.1,0.3l-0.1,0.1l-0.2,0.1h0l-0.2,0h-1.4l0.2-1h1.5l0.2,0l0.1,0.1l0.1,0.1V3.4z
		 M297.3,2.9l0-0.2l-0.1-0.2l-0.2-0.1l-0.2-0.1h-0.1l-0.2,0h-0.2l-0.3,0h-2.3l-0.7,4h1l0.3-1.6h0.5l0.2,0l0,0l0.2,0.1l0,0l0.1,0.1
		l0.1,0.2l0.1,0.2l0.5,0.9h1.1l-0.4-0.8l-0.1-0.2L296.5,5l-0.1-0.1l-0.1-0.1l-0.1-0.1L296,4.5l-0.2-0.1l0.1,0l0.3,0l0.2,0l0.2-0.1
		l0.2-0.1l0.2-0.2l0.1-0.1l0.1-0.2l0-0.2V3L297.3,2.9z"/>
	<path class="st0" d="M193.7,32.9h8l4.4-25H185l-4.4,16.5c-0.3,1.1-1.4,2-2.5,2h-2l-1.1,6.5h4.5c4.2,0,7.8-2.8,8.9-6.8l3.5-12.9h5.4
		L193.7,32.9z"/>
	<path class="st0" d="M271.5,27.7h12.6l-0.9,5.2h-14.4c-4.5,0-8.6-2.4-10.9-6.2c-2.2-3.9-2.2-8.6,0-12.5c2.3-3.9,6.4-6.2,10.9-6.2
		h18.8l-2.2,12.5h-8l1.3-7.2h-7.2c-2.6,0-5,1.4-6.3,3.6c-1.3,2.3-1.3,5,0,7.3C266.5,26.3,268.9,27.7,271.5,27.7"/>
	<polygon class="st0" points="249.9,8 258.6,8 249.8,20.5 255.7,32.9 247,32.9 241.1,20.5 	"/>
	<polygon class="st0" points="235.3,8 243.3,8 238.9,32.9 230.9,32.9 	"/>
	<polygon class="st0" points="224.7,23.1 215.2,23.1 214.5,27.7 227.8,27.7 226.9,32.9 205.5,32.9 209.9,8 231.3,8 230.4,13.2 
		217,13.2 216.2,17.8 225.6,17.8 	"/>
	<polygon class="st0" points="163,32.9 165.2,20.4 153.5,32.9 144.3,32.9 148.6,8 156.7,8 154.5,20.4 166.2,8 175.4,8 171,32.9 	"/>
	<polygon class="st0" points="124.9,20.5 134.7,8 144.7,8 134.9,20.5 140.8,32.9 130.8,32.9 	"/>
	<polygon class="st0" points="127.1,8 122.7,32.9 114.7,32.9 119.1,8 	"/>
	<polygon class="st0" points="97,32.9 107.1,32.9 116.9,20.4 111,8 101,8 106.8,20.4 	"/>
	<path class="st0" d="M71.2,13.2h12.6c2.6,0,5,1.4,6.3,3.6c1.3,2.3,1.3,5,0,7.3c-1.3,2.2-3.7,3.6-6.3,3.6h-7.1l1.3-7.3h-8l-2.2,12.5
		h18.7c4.5,0,8.6-2.4,10.9-6.2c2.2-3.9,2.2-8.6,0-12.5C95.1,10.3,91,8,86.5,8H72.1L71.2,13.2z"/>
	<path class="st1" d="M21.3,29.7h25.2c5.3,0,10.2-2.8,12.9-7.4C62,17.7,62,12,59.4,7.5C56.7,2.9,51.8,0,46.5,0H26.6l-1.4,8h20
		c2.5,0,4.8,1.3,6,3.5c1.2,2.1,1.2,4.8,0,6.9c-1.2,2.1-3.5,3.5-6,3.5h-6.4l1.9-10.5H15.5c-5.3,0-10.2,2.8-12.9,7.4
		C0,23.2,0,28.9,2.7,33.4c2.7,4.6,7.5,7.4,12.9,7.4h20l1.4-7.9h-20c-2.5,0-4.8-1.3-6-3.4c-1.2-2.1-1.2-4.8,0-7
		c1.2-2.1,3.5-3.5,6-3.5h6.4L21.3,29.7z"/>
	<polygon class="st0" points="282.3,38.2 48.1,38.2 47.6,40.9 281.8,40.9 	"/>
</g>
</svg>
