<?xml version="1.0" encoding="utf-8"?>
<!-- Generator: Adobe Illustrator 19.0.0, SVG Export Plug-In . SVG Version: 6.00 Build 0)  -->
<svg version="1.1" id="Layer_1" xmlns="http://www.w3.org/2000/svg" xmlns:xlink="http://www.w3.org/1999/xlink" x="0px" y="0px"
	 viewBox="0 0 446.6 109.2" style="enable-background:new 0 0 446.6 109.2;" xml:space="preserve">
<style type="text/css">
	.st0{fill:#1A2D44;}
</style>
<g id="XMLID_22_">
	<polygon id="XMLID_23_" class="st0" points="43.8,77.1 43.8,28.9 67.6,28.9 67.6,13.4 0,13.4 0,22.5 6.4,28.9 23.8,28.9 23.8,77.1 
			"/>
	<polygon id="XMLID_37_" class="st0" points="95.2,61.7 95.2,52.5 123.4,52.5 123.4,38 95.2,38 95.2,28.9 127.1,28.9 133.4,22.5 
		133.4,13.4 75.2,13.4 75.2,68 84.2,77.1 134.4,77.1 134.4,68 128,61.7 	"/>
	<path id="XMLID_75_" class="st0" d="M142.6,13.4v63.8h20V60.3H195l11.8-10.9v-25L195,13.4H142.6z M188.2,42.1l-2.7,2.7h-22.8V28.9
		h1.8h21l2.7,2.7V42.1z"/>
	<polygon id="XMLID_76_" class="st0" points="275.5,13.4 255.5,42.5 235.4,13.4 215.4,13.4 215.4,70.8 221.8,77.1 235.4,77.1 
		235.4,45.3 248.6,64.4 262.3,64.4 275.5,45.3 275.5,77.1 295.6,77.1 295.6,19.8 289.2,13.4 	"/>
	<polygon id="XMLID_77_" class="st0" points="371.5,13.4 352.8,13.4 325.9,48 325.9,13.4 312.3,13.4 305.9,19.8 305.9,77.1 
		324.6,77.1 351.4,42.5 351.4,77.1 365.1,77.1 371.5,70.8 	"/>
	<polygon id="XMLID_78_" class="st0" points="379.1,28.9 402.8,28.9 402.8,77.1 422.8,77.1 422.8,28.9 440.2,28.9 446.6,22.5 
		446.6,13.4 379.1,13.4 	"/>
	<polygon id="XMLID_79_" class="st0" points="433.5,7.4 435.6,7.4 435.6,1.8 437.8,1.8 437.8,0 431.3,0 431.3,1.8 433.5,1.8 	"/>
	<polygon id="XMLID_80_" class="st0" points="444.4,0 442.6,2.9 440.9,0 438.7,0 438.7,7.4 440.7,7.4 440.7,3.2 442.6,6.1 
		442.6,6.1 444.5,3.2 444.5,7.4 446.6,7.4 446.6,0 	"/>
	<polygon id="XMLID_81_" class="st0" points="40.5,89.9 36.3,89.9 32.2,95.8 27.5,95.8 27.5,89.9 23.8,89.9 23.8,106.1 27.5,106.1 
		27.5,99.2 32.3,99.2 36.5,106.1 40.9,106.1 35.3,97.4 	"/>
	<path id="XMLID_84_" class="st0" d="M51.4,89.5c-4.9,0-9.1,3.4-9.1,8.5c0,5.1,4.2,8.5,9.1,8.5c4.9,0,9.1-3.4,9.1-8.5
		C60.5,92.9,56.4,89.5,51.4,89.5z M51.4,103.3c-3,0-5.4-2-5.4-5.4c0-3.3,2.4-5.4,5.4-5.4c3,0,5.4,2,5.4,5.4
		C56.9,101.3,54.5,103.3,51.4,103.3z"/>
	<polygon id="XMLID_85_" class="st0" points="74.7,101.6 74.5,101.6 68.9,89.9 64,89.9 64,106.1 67.5,106.1 67.5,94.7 67.7,94.7 
		73,106.1 76,106.1 81.5,94.7 81.7,94.7 81.7,106.1 85.3,106.1 85.3,89.9 80.6,89.9 	"/>
	<path id="XMLID_88_" class="st0" d="M105.3,91.6H102v-1.8h-3.6v1.8h-3.3c-3.8,0-6.7,2.6-6.7,6.4c0,3.8,2.9,6.2,6.7,6.2h3.3v1.8h3.6
		v-1.8h3.3c3.8,0,6.7-2.4,6.7-6.2C112,94.2,109.1,91.6,105.3,91.6z M98.4,100.9h-3.1c-1.9,0-3.2-1-3.2-2.9c0-2,1.2-3,3.2-3h3.1
		V100.9z M105.1,100.9H102V95h3.1c2,0,3.2,1,3.2,3C108.3,99.9,107,100.9,105.1,100.9z"/>
	<path id="XMLID_92_" class="st0" d="M123.9,89.5c-4.9,0-9.1,3.4-9.1,8.5c0,5.1,4.2,8.5,9.1,8.5c4.9,0,9.1-3.4,9.1-8.5
		C133,92.9,128.8,89.5,123.9,89.5z M123.9,103.3c-3,0-5.4-2-5.4-5.4c0-3.3,2.4-5.4,5.4-5.4c3,0,5.4,2,5.4,5.4
		C129.3,101.3,127,103.3,123.9,103.3z"/>
	<path id="XMLID_95_" class="st0" d="M146,89.9h-9.6v16.2h3.7v-3.6h5.9c3.8,0,6.7-2.4,6.7-6.2C152.7,92.4,149.8,89.9,146,89.9z
		 M145.9,99.1h-5.7v-5.9h5.7c1.9,0,3.2,1.1,3.2,3C149,98.1,147.7,99.1,145.9,99.1z"/>
	<polygon id="XMLID_96_" class="st0" points="155,93.1 161.6,93.1 161.6,106.1 165.3,106.1 165.3,93.1 171.9,93.1 171.9,89.9 
		155,89.9 	"/>
	<polygon id="XMLID_97_" class="st0" points="187.8,101.1 187.8,89.9 184.2,89.9 184.2,106.1 187.8,106.1 197.4,94.9 197.4,106.1 
		201,106.1 201,89.9 197.5,89.9 	"/>
	<polygon id="XMLID_98_" class="st0" points="226.7,96 217.5,96 217.5,89.9 213.9,89.9 213.9,106.1 217.5,106.1 217.5,99.3 
		226.7,99.3 226.7,106.1 230.3,106.1 230.3,89.9 226.7,89.9 	"/>
	<path id="XMLID_101_" class="st0" d="M240.5,89.9l-7.1,16.2h3.9l1.1-2.5h10l1.1,2.5h3.9l-6.9-16.2H240.5z M239.8,100.4l3-7.3h1.3
		l2.9,7.3H239.8z"/>
	<path id="XMLID_104_" class="st0" d="M273.5,89.9h-12.9l-2.6,12.9H256v6.4h3.2l0.3-3.1H272l0.3,3.1h3.2v-6.4h-1.9V89.9z
		 M269.9,102.8h-8l1.7-9.7h6.3V102.8z"/>
	<polygon id="XMLID_105_" class="st0" points="282.3,99.5 292.3,99.5 292.3,96.2 282.3,96.2 282.3,93.2 293.4,93.2 293.4,89.9 
		278.7,89.9 278.7,106.1 293.8,106.1 293.8,102.7 282.3,102.7 	"/>
	<polygon id="XMLID_106_" class="st0" points="322.5,89.9 318.3,89.9 314.7,96 311.6,96 311.6,89.9 307.9,89.9 307.9,96 304.8,96 
		301.2,89.9 297.1,89.9 301.7,97.4 296.5,106.1 300.8,106.1 304.7,99.2 307.9,99.2 307.9,106.1 311.6,106.1 311.6,99.2 314.9,99.2 
		318.8,106.1 323,106.1 317.9,97.4 	"/>
	<polygon id="XMLID_107_" class="st0" points="338.8,96 329.6,96 329.6,89.9 326,89.9 326,106.1 329.6,106.1 329.6,99.3 338.8,99.3 
		338.8,106.1 342.4,106.1 342.4,89.9 338.8,89.9 	"/>
	<path id="XMLID_110_" class="st0" d="M355,89.5c-4.9,0-9.1,3.4-9.1,8.5c0,5.1,4.2,8.5,9.1,8.5c4.9,0,9.1-3.4,9.1-8.5
		C364.1,92.9,359.9,89.5,355,89.5z M355,103.3c-3,0-5.4-2-5.4-5.4c0-3.3,2.4-5.4,5.4-5.4c3,0,5.4,2,5.4,5.4
		C360.4,101.3,358,103.3,355,103.3z"/>
	<path id="XMLID_111_" class="st0" d="M376.2,92.7c2.6,0,4.2,1,5.4,2.7l2.8-1.6c-1.7-2.8-4.4-4.3-8.2-4.3c-5.1,0-9.1,3.3-9.1,8.5
		c0,5.2,3.9,8.5,9.1,8.5c3.8,0,6.5-1.5,8.2-4.3l-2.8-1.6c-1.2,1.8-2.8,2.7-5.4,2.7c-3.2,0-5.4-2.1-5.4-5.2
		C370.8,94.8,373,92.7,376.2,92.7z"/>
	<polygon id="XMLID_112_" class="st0" points="386.9,93.1 393.5,93.1 393.5,106.1 397.2,106.1 397.2,93.1 403.8,93.1 403.8,89.9 
		386.9,89.9 	"/>
	<path id="XMLID_115_" class="st0" d="M416.1,93.5h-5.6v-3.7h-3.7v16.2h9.3c3.8,0,6.7-2.6,6.7-6.4C422.8,95.9,419.9,93.5,416.1,93.5
		z M415.9,102.7h-5.3v-5.9h5.3c2.2,0,3.3,0.9,3.3,2.9C419.2,101.7,418,102.7,415.9,102.7z"/>
</g>
</svg>
