<?xml version="1.0" encoding="UTF-8"?>
<svg xmlns="http://www.w3.org/2000/svg" xmlns:xlink="http://www.w3.org/1999/xlink" width="480pt" height="480pt" viewBox="0 0 480 480" version="1.1">
<g id="surface1">
<path style=" stroke:none;fill-rule:nonzero;fill:rgb(100%,54.509804%,0%);fill-opacity:1;" d="M 480 240 C 480 372.550781 372.550781 480 240 480 C 107.449219 480 0 372.550781 0 240 C 0 107.449219 107.449219 0 240 0 C 372.550781 0 480 107.449219 480 240 Z M 480 240 "/>
<path style=" stroke:none;fill-rule:nonzero;fill:rgb(94.901961%,27.058824%,0%);fill-opacity:1;" d="M 480 240 C 480 231.589844 479.5625 223.28125 478.71875 215.097656 L 396.476562 132.859375 L 388.96875 144.296875 L 353.417969 108.75 L 126.582031 377.8125 L 228.488281 479.71875 C 232.300781 479.902344 236.140625 480 240 480 C 372.550781 480 480 372.550781 480 240 Z M 480 240 "/>
<path style=" stroke:none;fill-rule:nonzero;fill:rgb(85.882353%,93.333333%,100%);fill-opacity:1;" d="M 353.417969 377.8125 L 126.582031 377.8125 L 126.582031 108.75 L 240 61.875 L 353.417969 108.75 Z M 353.417969 377.8125 "/>
<path style=" stroke:none;fill-rule:nonzero;fill:rgb(63.921569%,83.137255%,100%);fill-opacity:1;" d="M 353.417969 108.75 L 240 61.875 L 240 377.8125 L 353.417969 377.8125 Z M 353.417969 108.75 "/>
<path style=" stroke:none;fill-rule:nonzero;fill:rgb(63.921569%,83.137255%,100%);fill-opacity:1;" d="M 326.207031 167.570312 C 316.511719 180.671875 300.957031 189.164062 283.414062 189.164062 C 265.867188 189.164062 249.695312 180.929688 240 167.835938 C 230.304688 180.929688 215.367188 189.164062 197.828125 189.164062 C 180.28125 189.164062 164.726562 180.667969 155.03125 167.570312 C 148.089844 176.957031 138.125 183.96875 126.582031 187.195312 L 126.582031 272.691406 L 353.417969 272.691406 L 353.417969 186.820312 C 342.402344 183.453125 332.902344 176.621094 326.207031 167.570312 Z M 326.207031 167.570312 "/>
<path style=" stroke:none;fill-rule:nonzero;fill:rgb(39.607843%,69.411765%,98.823529%);fill-opacity:1;" d="M 353.417969 186.820312 C 342.402344 183.453125 332.902344 176.621094 326.207031 167.570312 C 316.511719 180.671875 300.957031 189.164062 283.414062 189.164062 C 265.867188 189.164062 249.695312 180.929688 240 167.835938 C 239.796875 168.105469 240.203125 167.570312 240 167.835938 L 240 272.691406 L 353.417969 272.691406 Z M 353.417969 186.820312 "/>
<path style=" stroke:none;fill-rule:nonzero;fill:rgb(39.607843%,69.411765%,98.823529%);fill-opacity:1;" d="M 326.207031 220.132812 C 316.511719 233.230469 300.957031 241.722656 283.414062 241.722656 C 265.867188 241.722656 249.695312 233.230469 240 220.132812 C 230.304688 233.230469 215.367188 241.722656 197.828125 241.722656 C 180.28125 241.722656 164.726562 233.230469 155.03125 220.132812 C 148.089844 229.519531 138.125 236.53125 126.582031 239.753906 L 126.582031 325.253906 L 353.417969 325.253906 L 353.417969 239.382812 C 342.402344 236.015625 332.902344 229.179688 326.207031 220.132812 Z M 326.207031 220.132812 "/>
<path style=" stroke:none;fill-rule:nonzero;fill:rgb(15.686275%,39.215686%,94.117647%);fill-opacity:1;" d="M 240 220.921875 L 240 325.253906 L 353.417969 325.253906 L 353.417969 239.382812 C 342.402344 236.011719 332.902344 229.179688 326.207031 220.132812 C 316.511719 233.230469 300.957031 241.722656 283.414062 241.722656 C 265.867188 241.722656 249.695312 233.230469 240 220.132812 Z M 240 220.921875 "/>
<path style=" stroke:none;fill-rule:nonzero;fill:rgb(15.686275%,39.215686%,94.117647%);fill-opacity:1;" d="M 326.207031 272.691406 C 316.511719 285.789062 300.957031 294.28125 283.414062 294.28125 C 265.867188 294.28125 249.695312 285.789062 240 272.691406 C 230.304688 285.789062 215.367188 294.28125 197.828125 294.28125 C 180.28125 294.28125 164.726562 285.789062 155.03125 272.691406 C 148.089844 282.078125 138.125 289.089844 126.582031 292.3125 L 126.582031 377.8125 L 353.417969 377.8125 L 353.417969 291.941406 C 342.402344 288.574219 332.902344 281.742188 326.207031 272.691406 Z M 326.207031 272.691406 "/>
<path style=" stroke:none;fill-rule:nonzero;fill:rgb(15.294118%,28.235294%,56.078431%);fill-opacity:1;" d="M 240 273.484375 L 240 377.8125 L 353.417969 377.8125 L 353.417969 291.941406 C 342.402344 288.574219 332.902344 281.742188 326.207031 272.691406 C 316.511719 285.789062 300.957031 294.28125 283.414062 294.28125 C 265.867188 294.28125 249.695312 285.789062 240 272.691406 Z M 240 273.484375 "/>
<path style=" stroke:none;fill-rule:nonzero;fill:rgb(63.921569%,83.137255%,100%);fill-opacity:1;" d="M 411.5625 377.8125 L 383.4375 377.8125 L 383.4375 163.570312 C 383.4375 157.640625 378.609375 152.8125 372.679688 152.8125 L 316.875 152.8125 L 316.875 124.6875 L 372.679688 124.6875 C 394.121094 124.6875 411.5625 142.128906 411.5625 163.570312 Z M 411.5625 377.8125 "/>
</g>
</svg>
