<svg height="512pt" viewBox="0 0 512 512" width="512pt" xmlns="http://www.w3.org/2000/svg"><path d="m512 256c0 141.386719-114.613281 256-256 256s-256-114.613281-256-256 114.613281-256 256-256 256 114.613281 256 256zm0 0" fill="#ff8b00"/><path d="m512 256c0-8.972656-.464844-17.832031-1.367188-26.5625l-87.722656-87.722656-8.011718 12.203125-37.917969-37.917969-241.960938 287 108.699219 108.699219c4.070312.195312 8.164062.300781 12.28125.300781 141.386719 0 256-114.613281 256-256zm0 0" fill="#f24500"/><path d="m376.980469 403h-241.960938v-287l120.980469-50 120.980469 50zm0 0" fill="#dbeeff"/><path d="m376.980469 116-120.980469-50v337h120.980469zm0 0" fill="#a3d4ff"/><path d="m347.953125 178.742188c-10.339844 13.972656-26.933594 23.03125-45.644531 23.03125-18.714844 0-35.96875-8.78125-46.308594-22.75-10.339844 13.96875-26.273438 22.75-44.984375 22.75-18.714844 0-35.308594-9.0625-45.648437-23.03125-7.40625 10.011718-18.035157 17.492187-30.347657 20.933593v91.195313h241.960938v-91.597656c-11.75-3.589844-21.882813-10.878907-29.027344-20.53125zm0 0" fill="#a3d4ff"/><path d="m376.980469 199.273438c-11.75-3.589844-21.882813-10.878907-29.027344-20.53125-10.339844 13.972656-26.933594 23.03125-45.644531 23.03125-18.714844 0-35.96875-8.78125-46.308594-22.75-.214844.289062.21875-.28125 0 0v111.847656h120.980469zm0 0" fill="#65b1fc"/><path d="m347.953125 234.808594c-10.339844 13.96875-26.933594 23.027344-45.644531 23.027344-18.714844 0-35.96875-9.058594-46.308594-23.027344-10.339844 13.96875-26.273438 23.027344-44.984375 23.027344-18.714844 0-35.308594-9.058594-45.648437-23.027344-7.40625 10.011718-18.035157 17.492187-30.347657 20.929687v91.199219h241.960938v-91.597656c-11.75-3.589844-21.882813-10.882813-29.027344-20.53125zm0 0" fill="#65b1fc"/><path d="m256 235.648438v111.289062h120.980469v-91.597656c-11.75-3.59375-21.882813-10.882813-29.027344-20.53125-10.339844 13.96875-26.933594 23.027344-45.644531 23.027344-18.714844 0-35.96875-9.058594-46.308594-23.027344zm0 0" fill="#2864f0"/><path d="m347.953125 290.871094c-10.339844 13.96875-26.933594 23.027344-45.644531 23.027344-18.714844 0-35.96875-9.058594-46.308594-23.027344-10.339844 13.96875-26.273438 23.027344-44.984375 23.027344-18.714844 0-35.308594-9.058594-45.648437-23.027344-7.40625 10.011718-18.035157 17.492187-30.347657 20.929687v91.199219h241.960938v-91.597656c-11.75-3.589844-21.882813-10.878906-29.027344-20.53125zm0 0" fill="#2864f0"/><path d="m256 291.714844v111.285156h120.980469v-91.597656c-11.75-3.589844-21.882813-10.878906-29.027344-20.53125-10.339844 13.96875-26.933594 23.027344-45.644531 23.027344-18.714844 0-35.96875-9.058594-46.308594-23.027344zm0 0" fill="#27488f"/><path d="m439 403h-30v-228.523438c0-6.328124-5.148438-11.476562-11.476562-11.476562h-59.523438v-30h59.523438c22.871093 0 41.476562 18.605469 41.476562 41.476562zm0 0" fill="#a3d4ff"/></svg>