<?xml version="1.0" encoding="UTF-8" standalone="no"?>
<!-- Generator: Adobe Illustrator 19.1.0, SVG Export Plug-In . SVG Version: 6.00 Build 0)  -->

<svg
   xmlns:dc="http://purl.org/dc/elements/1.1/"
   xmlns:cc="http://creativecommons.org/ns#"
   xmlns:rdf="http://www.w3.org/1999/02/22-rdf-syntax-ns#"
   xmlns:svg="http://www.w3.org/2000/svg"
   xmlns="http://www.w3.org/2000/svg"
   xmlns:sodipodi="http://sodipodi.sourceforge.net/DTD/sodipodi-0.dtd"
   xmlns:inkscape="http://www.inkscape.org/namespaces/inkscape"
   version="1.1"
   id="Capa_1"
   x="0px"
   y="0px"
   viewBox="0 0 63 63"
   style="enable-background:new 0 0 63 63;"
   xml:space="preserve"
   sodipodi:docname="sea.svg"
   inkscape:version="0.92.4 5da689c313, 2019-01-14"><metadata
   id="metadata3871"><rdf:RDF><cc:Work
       rdf:about=""><dc:format>image/svg+xml</dc:format><dc:type
         rdf:resource="http://purl.org/dc/dcmitype/StillImage" /></cc:Work></rdf:RDF></metadata><defs
   id="defs3869" /><sodipodi:namedview
   pagecolor="#ffffff"
   bordercolor="#666666"
   borderopacity="1"
   objecttolerance="10"
   gridtolerance="10"
   guidetolerance="10"
   inkscape:pageopacity="0"
   inkscape:pageshadow="2"
   inkscape:window-width="1680"
   inkscape:window-height="1028"
   id="namedview3867"
   showgrid="false"
   inkscape:zoom="12.68254"
   inkscape:cx="31.5"
   inkscape:cy="31.5"
   inkscape:window-x="0"
   inkscape:window-y="0"
   inkscape:window-maximized="1"
   inkscape:current-layer="Capa_1" />
<g
   id="g3834"
   style="fill:#ffffff">
	<g
   id="group-20svg"
   style="fill:#ffffff">
		<path
   id="path-1_11_"
   d="M43.426,56.405c-4.01,0-8.481-1.271-13.257-4.692C13.934,40.086,3.035,51.062,2.58,51.535    c-0.576,0.597-1.525,0.613-2.121,0.038c-0.597-0.575-0.613-1.524-0.039-2.121c0.13-0.134,13.182-13.295,31.495-0.178    c16.068,11.507,27.872-4.529,28.367-5.217c0.485-0.673,1.423-0.825,2.093-0.343c0.673,0.483,0.826,1.421,0.343,2.093    C62.615,45.95,54.926,56.403,43.426,56.405z"
   style="fill:#ffffff" />
		<path
   id="path-2_11_"
   d="M43.426,46.96c-4.01,0-8.481-1.27-13.257-4.691C13.934,30.642,3.035,41.618,2.58,42.091    c-0.576,0.597-1.525,0.613-2.121,0.038c-0.597-0.575-0.613-1.525-0.039-2.121c0.13-0.135,13.182-13.295,31.495-0.178    c16.068,11.508,27.872-4.529,28.367-5.217c0.485-0.674,1.423-0.825,2.093-0.343c0.673,0.483,0.826,1.42,0.343,2.093    C62.615,36.506,54.926,46.959,43.426,46.96z"
   style="fill:#ffffff" />
		<path
   id="path-3_10_"
   d="M52.824,35.017c-0.531,0-1.047-0.283-1.318-0.783c-0.397-0.728-0.127-1.639,0.6-2.035    c5.071-2.758,8.145-6.989,8.175-7.031c0.485-0.674,1.422-0.826,2.094-0.343c0.673,0.483,0.826,1.42,0.344,2.093    c-0.142,0.196-3.512,4.833-9.179,7.916C53.312,34.958,53.066,35.017,52.824,35.017z"
   style="fill:#ffffff" />
		<path
   id="path-4_8_"
   d="M32.363,34c-0.276,0-0.556-0.076-0.806-0.236c-0.46-0.293-0.923-0.606-1.389-0.94    C14.013,21.252,3.035,32.178,2.577,32.649c-0.579,0.593-1.527,0.606-2.12,0.031c-0.594-0.576-0.61-1.522-0.037-2.116    c0.13-0.135,13.182-13.296,31.495-0.179c0.422,0.302,0.841,0.585,1.256,0.85c0.698,0.445,0.903,1.373,0.458,2.071    C33.343,33.755,32.858,34,32.363,34z"
   style="fill:#ffffff" />
		<path
   id="path-5_7_"
   d="M43.035,35.405c-3.343,0-6.254-1.775-7.244-4.417c-0.858-2.279-1.177-4.096-1.177-6.701    c0-4.673,3.94-15.465,4.39-16.68c0-0.001,0.001-0.004,0.003-0.008c0-0.002,0.001-0.003,0.002-0.005    c0.003-0.01,0.007-0.022,0.007-0.023h0.001c0.009-0.024,0.018-0.047,0.025-0.062C39.359,6.758,40.661,6.4,41.419,6.7    c0.758,0.301,1.295,1.153,1.295,1.917c0,0,0,0.001,0,0.002c0,0.118-1.074,2.632,2.256,8.88c1.078,2.022,2.244,4.239,3.901,6.589    c0.689,0.997,1.867,3.309,1.867,5.008C50.738,32.574,47.222,35.405,43.035,35.405z M39.848,14.437    c-1.161,3.696-2.234,7.739-2.234,9.85c0,2.264,0.249,3.689,0.985,5.646c0.545,1.456,2.37,2.472,4.436,2.472    c2.489,0,4.593-1.516,4.593-3.309c0-0.634-0.686-2.202-1.438-3.291c-1.721-2.439-3.174-4.763-4.31-6.895    C40.972,17.205,40.315,15.721,39.848,14.437z"
   style="fill:#ffffff" />
	</g>
</g>
<g
   id="g3836">
</g>
<g
   id="g3838">
</g>
<g
   id="g3840">
</g>
<g
   id="g3842">
</g>
<g
   id="g3844">
</g>
<g
   id="g3846">
</g>
<g
   id="g3848">
</g>
<g
   id="g3850">
</g>
<g
   id="g3852">
</g>
<g
   id="g3854">
</g>
<g
   id="g3856">
</g>
<g
   id="g3858">
</g>
<g
   id="g3860">
</g>
<g
   id="g3862">
</g>
<g
   id="g3864">
</g>
</svg>