<?xml version="1.0" encoding="UTF-8"?>
<svg xmlns="http://www.w3.org/2000/svg" xmlns:xlink="http://www.w3.org/1999/xlink" width="128pt" height="128pt" viewBox="0 0 128 128" version="1.1">
<g id="surface1">
<path style=" stroke:none;fill-rule:nonzero;fill:rgb(100%,54.509804%,0%);fill-opacity:1;" d="M 128 64 C 128 99.347656 99.347656 128 64 128 C 28.652344 128 0 99.347656 0 64 C 0 28.652344 28.652344 0 64 0 C 99.347656 0 128 28.652344 128 64 Z M 128 64 "/>
<path style=" stroke:none;fill-rule:nonzero;fill:rgb(94.901961%,27.058824%,0%);fill-opacity:1;" d="M 128 64 C 128 61.757812 127.882812 59.542969 127.65625 57.359375 L 105.726562 35.429688 L 103.726562 38.480469 L 94.246094 29 L 33.753906 100.75 L 60.929688 127.925781 C 61.945312 127.972656 62.96875 128 64 128 C 99.347656 128 128 99.347656 128 64 Z M 128 64 "/>
<path style=" stroke:none;fill-rule:nonzero;fill:rgb(85.882353%,93.333333%,100%);fill-opacity:1;" d="M 94.246094 100.75 L 33.753906 100.75 L 33.753906 29 L 64 16.5 L 94.246094 29 Z M 94.246094 100.75 "/>
<path style=" stroke:none;fill-rule:nonzero;fill:rgb(63.921569%,83.137255%,100%);fill-opacity:1;" d="M 94.246094 29 L 64 16.5 L 64 100.75 L 94.246094 100.75 Z M 94.246094 29 "/>
<path style=" stroke:none;fill-rule:nonzero;fill:rgb(63.921569%,83.137255%,100%);fill-opacity:1;" d="M 86.988281 44.6875 C 84.402344 48.179688 80.253906 50.445312 75.578125 50.445312 C 70.898438 50.445312 66.585938 48.25 64 44.757812 C 61.414062 48.25 57.429688 50.445312 52.753906 50.445312 C 48.074219 50.445312 43.925781 48.179688 41.34375 44.6875 C 39.492188 47.1875 36.832031 49.058594 33.753906 49.917969 L 33.753906 72.71875 L 94.246094 72.71875 L 94.246094 49.820312 C 91.308594 48.921875 88.773438 47.097656 86.988281 44.6875 Z M 86.988281 44.6875 "/>
<path style=" stroke:none;fill-rule:nonzero;fill:rgb(39.607843%,69.411765%,98.823529%);fill-opacity:1;" d="M 94.246094 49.820312 C 91.308594 48.921875 88.773438 47.097656 86.988281 44.6875 C 84.402344 48.179688 80.253906 50.445312 75.578125 50.445312 C 70.898438 50.445312 66.585938 48.25 64 44.757812 C 63.945312 44.828125 64.054688 44.6875 64 44.757812 L 64 72.71875 L 94.246094 72.71875 Z M 94.246094 49.820312 "/>
<path style=" stroke:none;fill-rule:nonzero;fill:rgb(39.607843%,69.411765%,98.823529%);fill-opacity:1;" d="M 86.988281 58.703125 C 84.402344 62.195312 80.253906 64.460938 75.578125 64.460938 C 70.898438 64.460938 66.585938 62.195312 64 58.703125 C 61.414062 62.195312 57.429688 64.460938 52.753906 64.460938 C 48.074219 64.460938 43.925781 62.195312 41.34375 58.703125 C 39.492188 61.203125 36.832031 63.074219 33.753906 63.933594 L 33.753906 86.734375 L 94.246094 86.734375 L 94.246094 63.835938 C 91.308594 62.9375 88.773438 61.113281 86.988281 58.703125 Z M 86.988281 58.703125 "/>
<path style=" stroke:none;fill-rule:nonzero;fill:rgb(15.686275%,39.215686%,94.117647%);fill-opacity:1;" d="M 64 58.914062 L 64 86.734375 L 94.246094 86.734375 L 94.246094 63.835938 C 91.308594 62.9375 88.773438 61.113281 86.988281 58.703125 C 84.402344 62.195312 80.253906 64.460938 75.578125 64.460938 C 70.898438 64.460938 66.585938 62.195312 64 58.703125 Z M 64 58.914062 "/>
<path style=" stroke:none;fill-rule:nonzero;fill:rgb(15.686275%,39.215686%,94.117647%);fill-opacity:1;" d="M 86.988281 72.71875 C 84.402344 76.210938 80.253906 78.476562 75.578125 78.476562 C 70.898438 78.476562 66.585938 76.210938 64 72.71875 C 61.414062 76.210938 57.429688 78.476562 52.753906 78.476562 C 48.074219 78.476562 43.925781 76.210938 41.34375 72.71875 C 39.492188 75.21875 36.832031 77.089844 33.753906 77.949219 L 33.753906 100.75 L 94.246094 100.75 L 94.246094 77.851562 C 91.308594 76.953125 88.773438 75.132812 86.988281 72.71875 Z M 86.988281 72.71875 "/>
<path style=" stroke:none;fill-rule:nonzero;fill:rgb(15.294118%,28.235294%,56.078431%);fill-opacity:1;" d="M 64 72.929688 L 64 100.75 L 94.246094 100.75 L 94.246094 77.851562 C 91.308594 76.953125 88.773438 75.132812 86.988281 72.71875 C 84.402344 76.210938 80.253906 78.476562 75.578125 78.476562 C 70.898438 78.476562 66.585938 76.210938 64 72.71875 Z M 64 72.929688 "/>
<path style=" stroke:none;fill-rule:nonzero;fill:rgb(63.921569%,83.137255%,100%);fill-opacity:1;" d="M 109.75 100.75 L 102.25 100.75 L 102.25 43.617188 C 102.25 42.039062 100.960938 40.75 99.382812 40.75 L 84.5 40.75 L 84.5 33.25 L 99.382812 33.25 C 105.097656 33.25 109.75 37.902344 109.75 43.617188 Z M 109.75 100.75 "/>
</g>
</svg>
